<?xml version="1.0" encoding="utf-8"?>
<!-- Generator: Adobe Illustrator 21.1.0, SVG Export Plug-In . SVG Version: 6.00 Build 0)  -->
<svg version="1.1" id="Layer_1" xmlns="http://www.w3.org/2000/svg" xmlns:xlink="http://www.w3.org/1999/xlink" x="0px" y="0px"
	 viewBox="0 0 128 128" style="enable-background:new 0 0 128 128;" xml:space="preserve">
<style type="text/css">
	.st0{fill:#BBBDBF;}
</style>
<g>
	<circle class="st0" cx="63.8" cy="62.9" r="31.5"/>
	<rect x="61.3" y="5.5" class="st0" width="4.9" height="23.5"/>
	<rect x="61.3" y="98.5" class="st0" width="4.9" height="23.5"/>
	<rect x="97.4" y="60.4" class="st0" width="23.5" height="4.9"/>
	<rect x="6.7" y="60.4" class="st0" width="23.5" height="4.9"/>
	<rect x="84.8" y="26.5" transform="matrix(0.7072 -0.707 0.707 0.7072 7.7489 76.7219)" class="st0" width="23.5" height="4.9"/>
	
		<rect x="18.4" y="93.9" transform="matrix(0.7071 -0.7071 0.7071 0.7071 -59.336 49.5693)" class="st0" width="23.5" height="4.9"/>
	
		<rect x="27.7" y="17.3" transform="matrix(0.7071 -0.7071 0.7071 0.7071 -11.6742 29.8271)" class="st0" width="4.9" height="23.5"/>
	<rect x="94.9" y="84" transform="matrix(0.7072 -0.707 0.707 0.7072 -39.1516 96.8817)" class="st0" width="4.9" height="23.5"/>
</g>
</svg>
