<?xml version="1.0" encoding="utf-8"?>
<!-- Generator: Adobe Illustrator 21.1.0, SVG Export Plug-In . SVG Version: 6.00 Build 0)  -->
<svg version="1.1" id="Layer_1" xmlns="http://www.w3.org/2000/svg" xmlns:xlink="http://www.w3.org/1999/xlink" x="0px" y="0px"
	 viewBox="0 0 128 128" style="enable-background:new 0 0 128 128;" xml:space="preserve">
<style type="text/css">
	.st0{fill:#BBBDBF;}
</style>
<g>
	<path class="st0" d="M126.2,79.1c-5.6-12.7-14.7-18.1-23.7-19.9C96.8,45.9,83,36.5,66.7,36.5c-19.2,0-35.1,13.2-38,30.4
		C5.7,65.4,0.2,86.1,0.2,86.1c-1.2,11.7,6,16.5,6,16.5c15.1,13.3,52.4,4.8,52.4,4.8h0c2.6,0.5,5.3,0.8,8.1,0.8c4.6,0,8.9-0.7,13-2.1
		c12.4,4.2,32,1.2,32,1.2C135.6,102,126.2,79.1,126.2,79.1z"/>
	<path class="st0" d="M67.2,33c11.5,0,21.8,4.8,28.9,12.2c6,1.5,14.4,0.2,14.4,0.2c11.6-2.5,7.1-13.7,7.1-13.7
		c-2.7-6.2-7.2-8.8-11.6-9.7C103.2,15.6,96.5,11,88.5,11c-9.4,0-17.1,6.4-18.5,14.8c-9.4-0.6-12.8,6.3-13.6,8.6
		C59.8,33.5,63.4,33,67.2,33z"/>
</g>
</svg>
