<?xml version="1.0" encoding="utf-8"?>
<!-- Generator: Adobe Illustrator 21.1.0, SVG Export Plug-In . SVG Version: 6.00 Build 0)  -->
<svg version="1.1" id="Layer_1" xmlns="http://www.w3.org/2000/svg" xmlns:xlink="http://www.w3.org/1999/xlink" x="0px" y="0px"
	 viewBox="0 0 128 128" style="enable-background:new 0 0 128 128;" xml:space="preserve">
<style type="text/css">
	.st0{fill:#BBBDBF;}
</style>
<g>
	<path class="st0" d="M1.2,77.6c0.2,3,0.9,5.4,1.8,7.3v-3.2h124.4c0.3-1.4,0.5-2.7,0.6-4H1.2z"/>
	<path class="st0" d="M128,76.6c0-0.1,0-0.1,0-0.2V76.6z"/>
	<path class="st0" d="M29.6,54.7c-5.6-0.4-10.2,0.6-13.9,2.3h104.4c-2.3-2.7-4.9-4.7-7.6-6.3h-82C30.1,52.1,29.8,53.4,29.6,54.7z"/>
	<path class="st0" d="M38.5,36.9c-1.7,1.8-3.2,3.7-4.4,5.8h66.4c-1.3-2.1-2.7-4-4.4-5.8H38.5z"/>
	<path class="st0" d="M6.7,89.7C7,90,7.3,90.1,7.3,90.1c15,13.2,52,4.7,52,4.7c2.6,0.5,5.3,0.8,8,0.8c4.5,0,8.9-0.7,12.9-2.1
		c12.2,4.2,31.7,1.2,31.7,1.2c4.9-1,8.3-2.8,10.8-5H6.7z"/>
	<path class="st0" d="M85.3,28.9c-5.4-2.7-11.5-4.3-18-4.3c-6.5,0-12.7,1.6-18,4.3H85.3z"/>
	<path class="st0" d="M3,69.6h124c-0.4-1.7-0.9-2.7-0.9-2.7c-0.3-0.6-0.6-1.2-0.8-1.8H5.8C4.6,66.7,3.7,68.2,3,69.6z"/>
</g>
</svg>
