<?xml version="1.0" encoding="utf-8"?>
<!-- Generator: Adobe Illustrator 21.1.0, SVG Export Plug-In . SVG Version: 6.00 Build 0)  -->
<svg version="1.1" id="Layer_1" xmlns="http://www.w3.org/2000/svg" xmlns:xlink="http://www.w3.org/1999/xlink" x="0px" y="0px"
	 viewBox="0 0 128 128" style="enable-background:new 0 0 128 128;" xml:space="preserve">
<style type="text/css">
	.st0{fill:#BBBDBF;}
</style>
<g>
	<path class="st0" d="M118.4,82.4c-5.1-11.5-13.3-16.4-21.5-18c-5.1-12-17.6-20.5-32.3-20.5c-17.4,0-31.8,11.9-34.3,27.5
		C9.4,70.1,4.5,88.8,4.5,88.8c-1.1,10.6,5.4,14.9,5.4,14.9c13.7,12,47.4,4.3,47.4,4.3c2.4,0.5,4.8,0.7,7.3,0.7
		c4.1,0,8.1-0.7,11.7-1.9c11.2,3.8,28.9,1.1,28.9,1.1C126.8,103.2,118.4,82.4,118.4,82.4z"/>
	<path class="st0" d="M68.8,40.3c11.4,0,21.3,5.7,25.9,14c0.9-2.3,1.5-4.8,1.5-7.4c0-10.7-8.7-19.4-19.4-19.4
		c-9.1,0-16.7,6.2-18.8,14.7C61.3,41,64.9,40.3,68.8,40.3z"/>
	<g>
		<rect x="75.5" y="9.6" class="st0" width="3" height="14.5"/>
		<rect x="75.5" y="67" class="st0" width="3" height="14.5"/>
		<rect x="97.8" y="43.5" class="st0" width="14.5" height="3"/>
		<rect x="41.8" y="39.4" class="st0" width="14.5" height="3"/>
		<rect x="90" y="22.6" transform="matrix(0.7065 -0.7077 0.7077 0.7065 11.4695 75.8731)" class="st0" width="14.5" height="3"/>
		<rect x="49" y="64.2" transform="matrix(0.7073 -0.707 0.707 0.7073 -29.9794 59.0215)" class="st0" width="14.5" height="3"/>
		<rect x="54.8" y="16.9" transform="matrix(0.707 -0.7072 0.7072 0.707 -0.5603 46.8617)" class="st0" width="3" height="14.5"/>
		<rect x="96.2" y="58" transform="matrix(0.7071 -0.7071 0.7071 0.7071 -17.5218 88.255)" class="st0" width="3" height="14.5"/>
	</g>
</g>
</svg>
