<?xml version="1.0" encoding="utf-8"?>
<!-- Generator: Adobe Illustrator 21.1.0, SVG Export Plug-In . SVG Version: 6.00 Build 0)  -->
<svg version="1.1" id="Layer_1" xmlns="http://www.w3.org/2000/svg" xmlns:xlink="http://www.w3.org/1999/xlink" x="0px" y="0px"
	 viewBox="0 0 128 128" style="enable-background:new 0 0 128 128;" xml:space="preserve">
<style type="text/css">
	.st0{fill:#BBBDBF;}
</style>
<g>
	<g>
		<path class="st0" d="M118.4,79.7c-5-11.3-13.1-16.1-21.1-17.7c-5-11.8-17.3-20.2-31.7-20.2c-17.1,0-31.2,11.7-33.7,27
			C11.4,67.5,6.5,85.9,6.5,85.9c-1.1,10.4,5.3,14.6,5.3,14.6c13.4,11.8,46.6,4.2,46.6,4.2l0,0c2.3,0.5,4.7,0.7,7.2,0.7
			c4,0,7.9-0.7,11.5-1.9c11,3.8,28.4,1,28.4,1C126.7,100,118.4,79.7,118.4,79.7z"/>
	</g>
	<path class="st0" d="M30.8,56.8c1.8-5.4,5.1-10.2,9.4-14c-2-3.5-3.2-7.6-3.2-11.9c0-6.5,2.6-12.4,6.8-16.6
		C31.3,15,21.4,25.3,21.4,38C21.4,45.7,25.1,52.5,30.8,56.8z"/>
</g>
</svg>
