<?xml version="1.0" encoding="utf-8"?>
<!-- Generator: Adobe Illustrator 21.1.0, SVG Export Plug-In . SVG Version: 6.00 Build 0)  -->
<svg version="1.1" id="Layer_1" xmlns="http://www.w3.org/2000/svg" xmlns:xlink="http://www.w3.org/1999/xlink" x="0px" y="0px"
	 viewBox="0 0 128 128" style="enable-background:new 0 0 128 128;" xml:space="preserve">
<style type="text/css">
	.st0{fill:#BBBDBF;stroke:#FFFFFF;stroke-width:0.7787;stroke-miterlimit:10;}
	.st1{fill:#BBBDBF;}
</style>
<g>
	<g>
		<path class="st0" d="M124.2,51.2c-5.5-12.4-14.3-17.6-23.1-19.4c-5.5-12.9-19-22.1-34.8-22.1c-18.7,0-34.2,12.8-36.9,29.6
			C7,37.9,1.7,58,1.7,58C0.5,69.4,7.5,74,7.5,74c14.7,12.9,51,4.6,51,4.6l0,0c2.5,0.5,5.2,0.8,7.9,0.8c4.4,0,8.7-0.7,12.6-2
			c12,4.1,31.1,1.1,31.1,1.1C133.4,73.5,124.2,51.2,124.2,51.2z"/>
	</g>
	<rect x="5.6" y="83.8" transform="matrix(0.3965 -0.918 0.918 0.3965 -65.7412 70.1426)" class="st1" width="29.8" height="2.6"/>
	
		<rect x="22.3" y="81.3" transform="matrix(0.3964 -0.9181 0.9181 0.3964 -53.3677 84.0409)" class="st1" width="29.8" height="2.6"/>
	<rect x="28.2" y="97" transform="matrix(0.3966 -0.918 0.918 0.3966 -64.2515 98.9542)" class="st1" width="29.8" height="2.6"/>
	
		<rect x="48.4" y="78.8" transform="matrix(0.3963 -0.9181 0.9181 0.3963 -35.328 106.4729)" class="st1" width="29.8" height="2.6"/>
	
		<rect x="60.3" y="83.2" transform="matrix(0.3965 -0.918 0.918 0.3965 -32.2331 120.0685)" class="st1" width="29.8" height="2.6"/>
	
		<rect x="75.5" y="82.3" transform="matrix(0.3965 -0.918 0.918 0.3965 -22.2017 133.4471)" class="st1" width="29.8" height="2.6"/>
	
		<rect x="87.6" y="79.4" transform="matrix(0.3965 -0.918 0.918 0.3965 -12.2632 142.8742)" class="st1" width="29.8" height="2.6"/>
	
		<rect x="60.3" y="100.7" transform="matrix(0.3965 -0.918 0.918 0.3965 -48.2949 130.6272)" class="st1" width="29.8" height="2.6"/>
</g>
</svg>
