<?xml version="1.0" encoding="utf-8"?>
<!-- Generator: Adobe Illustrator 21.1.0, SVG Export Plug-In . SVG Version: 6.00 Build 0)  -->
<svg version="1.1" id="Layer_1" xmlns="http://www.w3.org/2000/svg" xmlns:xlink="http://www.w3.org/1999/xlink" x="0px" y="0px"
	 viewBox="0 0 128 128" style="enable-background:new 0 0 128 128;" xml:space="preserve">
<style type="text/css">
	.st0{fill:#BBBDBF;stroke:#FFFFFF;stroke-width:0.7787;stroke-miterlimit:10;}
	.st1{fill:#BBBDBF;}
</style>
<g>
	<g>
		<path class="st0" d="M121.3,53.2c-5.2-11.8-13.6-16.8-22-18.4c-5.2-12.3-18-21-33.1-21c-17.8,0-32.5,12.2-35.2,28.1
			C9.8,40.5,4.7,59.7,4.7,59.7C3.6,70.6,10.2,75,10.2,75c14,12.3,48.5,4.4,48.5,4.4l0,0c2.4,0.5,4.9,0.7,7.5,0.7
			c4.2,0,8.3-0.7,12-1.9c11.4,3.9,29.6,1.1,29.6,1.1C130,74.5,121.3,53.2,121.3,53.2z"/>
	</g>
	<rect x="8.4" y="84.2" transform="matrix(0.3965 -0.918 0.918 0.3965 -64.8562 72.3053)" class="st1" width="28.4" height="2.5"/>
	<rect x="29.9" y="96.9" transform="matrix(0.3965 -0.918 0.918 0.3965 -63.4388 99.7297)" class="st1" width="28.4" height="2.5"/>
	
		<rect x="49.1" y="79.5" transform="matrix(0.3955 -0.9185 0.9185 0.3955 -35.8861 106.9719)" class="st1" width="28.4" height="2.5"/>
	
		<rect x="74.9" y="82.8" transform="matrix(0.3959 -0.9183 0.9183 0.3959 -23.3861 132.6266)" class="st1" width="28.4" height="2.5"/>
	
		<rect x="60.5" y="100.4" transform="matrix(0.3959 -0.9183 0.9183 0.3959 -48.2337 129.9489)" class="st1" width="28.4" height="2.5"/>
</g>
<g>
	<g>
		<g>
			<rect x="99.4" y="79.1" class="st1" width="3.2" height="19.2"/>
			<polygon class="st1" points="99.4,79.2 101,77.9 102.6,79.2 102.6,81.9 101,83.2 99.4,81.9 			"/>
			<polygon class="st1" points="99.4,95.6 101,94.3 102.6,95.6 102.6,98.3 101,99.7 99.4,98.3 			"/>
		</g>
		<g>
			<rect x="91.4" y="87.1" class="st1" width="19.2" height="3.2"/>
			<polygon class="st1" points="110.6,87.1 111.9,88.8 110.6,90.4 107.9,90.4 106.5,88.8 107.9,87.1 			"/>
			<polygon class="st1" points="94.1,87.1 95.5,88.8 94.1,90.4 91.4,90.4 90.1,88.8 91.4,87.1 			"/>
		</g>
		<g>
			
				<rect x="91.4" y="87.1" transform="matrix(0.7071 -0.7071 0.7071 0.7071 -33.1794 97.41)" class="st1" width="19.2" height="3.2"/>
			<polygon class="st1" points="106.6,80.9 108.7,81.1 108.9,83.2 107,85.1 104.9,84.9 104.7,82.8 			"/>
			<polygon class="st1" points="95,92.5 97.1,92.7 97.3,94.8 95.4,96.7 93.3,96.5 93.1,94.4 			"/>
		</g>
		<g>
			
				<rect x="99.4" y="79.2" transform="matrix(0.7071 -0.7071 0.7071 0.7071 -33.1794 97.41)" class="st1" width="3.2" height="19.2"/>
			<polygon class="st1" points="93.1,83.2 93.3,81.1 95.4,80.9 97.3,82.8 97.1,84.9 95,85.1 			"/>
			<polygon class="st1" points="104.7,94.8 104.9,92.7 107,92.5 108.9,94.4 108.7,96.5 106.6,96.7 			"/>
		</g>
	</g>
	<g>
		<rect x="93" y="84.2" class="st1" width="4.7" height="1.4"/>
		<rect x="96.4" y="80.9" class="st1" width="1.4" height="4.7"/>
	</g>
	<g>
		<rect x="104.2" y="80.9" class="st1" width="1.4" height="4.7"/>
		<rect x="104.2" y="84.3" class="st1" width="4.7" height="1.4"/>
	</g>
	<g>
		<rect x="96.4" y="92" class="st1" width="1.4" height="4.7"/>
		<rect x="93.1" y="91.9" class="st1" width="4.7" height="1.4"/>
	</g>
	<g>
		<rect x="104.3" y="92" class="st1" width="4.7" height="1.4"/>
		<rect x="104.2" y="92" class="st1" width="1.4" height="4.7"/>
	</g>
</g>
<g>
	<g>
		<g>
			<rect x="34.7" y="74.1" class="st1" width="2.7" height="15.8"/>
			<polygon class="st1" points="34.7,74.1 36.1,73 37.4,74.1 37.4,76.3 36.1,77.4 34.7,76.3 			"/>
			<polygon class="st1" points="34.7,87.6 36.1,86.5 37.4,87.6 37.4,89.9 36.1,91 34.7,89.9 			"/>
		</g>
		<g>
			<rect x="28.2" y="80.7" class="st1" width="15.8" height="2.7"/>
			<polygon class="st1" points="44,80.7 45.1,82 44,83.3 41.7,83.3 40.6,82 41.7,80.7 			"/>
			<polygon class="st1" points="30.4,80.7 31.5,82 30.4,83.3 28.2,83.3 27,82 28.2,80.7 			"/>
		</g>
		<g>
			
				<rect x="28.2" y="80.7" transform="matrix(0.7071 -0.7071 0.7071 0.7071 -47.4109 49.5106)" class="st1" width="15.8" height="2.7"/>
			<polygon class="st1" points="40.7,75.5 42.4,75.7 42.5,77.4 41,78.9 39.3,78.8 39.1,77.1 			"/>
			<polygon class="st1" points="31.1,85.1 32.8,85.2 33,86.9 31.4,88.5 29.7,88.4 29.5,86.6 			"/>
		</g>
		<g>
			
				<rect x="34.7" y="74.1" transform="matrix(0.7071 -0.7071 0.7071 0.7071 -47.4109 49.5106)" class="st1" width="2.7" height="15.8"/>
			<polygon class="st1" points="29.6,77.4 29.7,75.7 31.4,75.5 33,77.1 32.9,78.8 31.1,78.9 			"/>
			<polygon class="st1" points="39.1,86.9 39.3,85.2 41,85.1 42.6,86.6 42.4,88.4 40.7,88.5 			"/>
		</g>
	</g>
	<g>
		<rect x="29.5" y="78.2" class="st1" width="3.8" height="1.2"/>
		<rect x="32.3" y="75.5" class="st1" width="1.2" height="3.8"/>
	</g>
	<g>
		<rect x="38.7" y="75.5" class="st1" width="1.2" height="3.8"/>
		<rect x="38.7" y="78.3" class="st1" width="3.8" height="1.2"/>
	</g>
	<g>
		<rect x="32.3" y="84.7" class="st1" width="1.2" height="3.8"/>
		<rect x="29.6" y="84.6" class="st1" width="3.8" height="1.2"/>
	</g>
	<g>
		<rect x="38.8" y="84.7" class="st1" width="3.8" height="1.2"/>
		<rect x="38.7" y="84.7" class="st1" width="1.2" height="3.8"/>
	</g>
</g>
<g>
	<g>
		<g>
			<rect x="61.4" y="89.9" class="st1" width="3.5" height="20.8"/>
			<polygon class="st1" points="61.4,90 63.2,88.5 64.9,90 64.9,92.9 63.2,94.4 61.4,92.9 			"/>
			<polygon class="st1" points="61.4,107.8 63.2,106.3 64.9,107.8 64.9,110.7 63.2,112.1 61.4,110.7 			"/>
		</g>
		<g>
			<rect x="52.8" y="98.6" class="st1" width="20.8" height="3.5"/>
			<polygon class="st1" points="73.6,98.6 75,100.3 73.6,102.1 70.6,102.1 69.2,100.3 70.6,98.6 			"/>
			<polygon class="st1" points="55.7,98.6 57.2,100.3 55.7,102.1 52.8,102.1 51.3,100.3 52.8,98.6 			"/>
		</g>
		<g>
			
				<rect x="52.8" y="98.6" transform="matrix(0.7071 -0.7071 0.7071 0.7071 -52.4372 74.0516)" class="st1" width="20.8" height="3.5"/>
			<polygon class="st1" points="69.2,91.8 71.5,92 71.7,94.3 69.6,96.3 67.4,96.1 67.2,93.9 			"/>
			<polygon class="st1" points="56.7,104.4 58.9,104.6 59.1,106.8 57.1,108.9 54.8,108.7 54.6,106.4 			"/>
		</g>
		<g>
			
				<rect x="61.4" y="89.9" transform="matrix(0.7071 -0.7071 0.7071 0.7071 -52.4387 74.0582)" class="st1" width="3.5" height="20.8"/>
			<polygon class="st1" points="54.7,94.3 54.8,92 57.1,91.8 59.2,93.9 59,96.1 56.7,96.3 			"/>
			<polygon class="st1" points="67.2,106.8 67.4,104.6 69.7,104.4 71.7,106.4 71.5,108.7 69.3,108.9 			"/>
		</g>
	</g>
	<g>
		<rect x="54.5" y="95.3" class="st1" width="5.1" height="1.5"/>
		<rect x="58.2" y="91.8" class="st1" width="1.5" height="5"/>
	</g>
	<g>
		<rect x="66.6" y="91.8" class="st1" width="1.5" height="5"/>
		<rect x="66.6" y="95.5" class="st1" width="5.1" height="1.5"/>
	</g>
	<g>
		<rect x="58.2" y="103.8" class="st1" width="1.5" height="5.1"/>
		<rect x="54.6" y="103.7" class="st1" width="5.1" height="1.5"/>
	</g>
	<g>
		<rect x="66.8" y="103.8" class="st1" width="5.1" height="1.5"/>
		<rect x="66.6" y="103.8" class="st1" width="1.5" height="5.1"/>
	</g>
</g>
</svg>
