<?xml version="1.0" encoding="utf-8"?>
<!-- Generator: Adobe Illustrator 21.1.0, SVG Export Plug-In . SVG Version: 6.00 Build 0)  -->
<svg version="1.1" id="Layer_1" xmlns="http://www.w3.org/2000/svg" xmlns:xlink="http://www.w3.org/1999/xlink" x="0px" y="0px"
	 viewBox="0 0 128 128" style="enable-background:new 0 0 128 128;" xml:space="preserve">
<style type="text/css">
	.st0{fill:#BBBDBF;}
</style>
<g>
	<g>
		<g>
			<rect x="47.7" y="45.6" class="st0" width="12.8" height="76.1"/>
			<polygon class="st0" points="47.8,45.8 54.1,40.5 60.5,45.8 60.5,56.5 54.1,61.9 47.8,56.5 			"/>
			<polygon class="st0" points="47.8,111 54.1,105.6 60.5,111 60.5,121.7 54.1,127 47.8,121.7 			"/>
		</g>
		<g>
			<rect x="16.1" y="77.3" class="st0" width="76.1" height="12.8"/>
			<polygon class="st0" points="92.2,77.4 97.5,83.7 92.2,90.1 81.5,90.1 76.1,83.7 81.5,77.4 			"/>
			<polygon class="st0" points="26.8,77.4 32.2,83.7 26.8,90.1 16.1,90.1 10.8,83.7 16.1,77.4 			"/>
		</g>
		<g>
			
				<rect x="16.1" y="77.3" transform="matrix(0.7071 -0.7071 0.7071 0.7071 -43.3588 62.8156)" class="st0" width="76.1" height="12.8"/>
			<polygon class="st0" points="76.3,52.5 84.6,53.3 85.4,61.5 77.8,69.1 69.5,68.4 68.8,60.1 			"/>
			<polygon class="st0" points="30.3,98.6 38.6,99.3 39.3,107.6 31.8,115.1 23.5,114.4 22.7,106.1 			"/>
		</g>
		<g>
			
				<rect x="47.7" y="45.7" transform="matrix(0.7071 -0.7071 0.7071 0.7071 -43.3584 62.8137)" class="st0" width="12.8" height="76.1"/>
			<polygon class="st0" points="22.9,61.5 23.7,53.3 31.9,52.5 39.5,60.1 38.8,68.4 30.5,69.1 			"/>
			<polygon class="st0" points="69,107.6 69.7,99.3 78,98.6 85.5,106.1 84.8,114.4 76.5,115.1 			"/>
		</g>
	</g>
	<g>
		<rect x="22.4" y="65.5" class="st0" width="18.5" height="5.6"/>
		<rect x="35.8" y="52.6" class="st0" width="5.6" height="18.5"/>
	</g>
	<g>
		<rect x="66.9" y="52.6" class="st0" width="5.6" height="18.5"/>
		<rect x="66.9" y="66.1" class="st0" width="18.5" height="5.6"/>
	</g>
	<g>
		<rect x="35.8" y="96.6" class="st0" width="5.6" height="18.5"/>
		<rect x="22.9" y="96.1" class="st0" width="18.5" height="5.6"/>
	</g>
	<g>
		<rect x="67.4" y="96.6" class="st0" width="18.5" height="5.6"/>
		<rect x="66.9" y="96.6" class="st0" width="5.6" height="18.5"/>
	</g>
</g>
<g>
	<g>
		<g>
			
				<rect x="65.4" y="21.5" transform="matrix(0.5252 -0.851 0.851 0.5252 19.8935 85.8188)" class="st0" width="42.9" height="7.2"/>
			<polygon class="st0" points="95,5 99.6,4.4 101.1,8.8 97.9,14 93.3,14.6 91.8,10.2 			"/>
			<polygon class="st0" points="75.7,36.3 80.3,35.6 81.8,40.1 78.6,45.2 74,45.9 72.5,41.5 			"/>
		</g>
		<g>
			<rect x="83.2" y="3.7" transform="matrix(0.5252 -0.851 0.851 0.5252 19.8229 85.8283)" class="st0" width="7.2" height="42.9"/>
			<polygon class="st0" points="107,33.4 107.6,38 103.2,39.5 98.1,36.3 97.4,31.7 101.8,30.2 			"/>
			<polygon class="st0" points="75.6,14 76.3,18.6 71.8,20.1 66.7,16.9 66,12.3 70.4,10.8 			"/>
		</g>
		<g>
			
				<rect x="65.4" y="21.5" transform="matrix(0.9731 -0.2303 0.2303 0.9731 -3.457 20.6695)" class="st0" width="42.9" height="7.2"/>
			<polygon class="st0" points="106.7,16.7 110.5,19.5 108.4,23.7 102.5,25.1 98.8,22.3 100.9,18.1 			"/>
			<polygon class="st0" points="71,25.2 74.7,28 72.6,32.2 66.8,33.6 63,30.8 65.1,26.6 			"/>
		</g>
		<g>
			
				<rect x="83.2" y="3.7" transform="matrix(0.9731 -0.2304 0.2304 0.9731 -3.4576 20.6799)" class="st0" width="7.2" height="42.9"/>
			<polygon class="st0" points="78.4,5.2 81.2,1.5 85.4,3.6 86.8,9.4 84,13.2 79.8,11.1 			"/>
			<polygon class="st0" points="86.9,41 89.7,37.2 93.9,39.3 95.3,45.2 92.5,49 88.3,46.9 			"/>
		</g>
	</g>
	<g>
		<rect x="79" y="5.8" transform="matrix(0.5251 -0.851 0.851 0.5251 28.8477 73.8254)" class="st0" width="3.2" height="10.4"/>
		
			<rect x="80.6" y="8.5" transform="matrix(0.5254 -0.8508 0.8508 0.5254 32.1948 77.7989)" class="st0" width="10.4" height="3.2"/>
	</g>
	<g>
		<rect x="95.5" y="17.7" transform="matrix(0.5252 -0.851 0.851 0.5252 31.4639 94.8839)" class="st0" width="10.4" height="3.2"/>
		
			<rect x="100.2" y="19.3" transform="matrix(0.5252 -0.851 0.851 0.5252 27.4721 98.2578)" class="st0" width="3.2" height="10.4"/>
	</g>
	<g>
		<rect x="67.6" y="29.6" transform="matrix(0.5252 -0.851 0.851 0.5252 8.0394 76.7512)" class="st0" width="10.4" height="3.2"/>
		<rect x="70.2" y="20.7" transform="matrix(0.5251 -0.851 0.851 0.5251 12.0349 73.383)" class="st0" width="3.2" height="10.4"/>
	</g>
	<g>
		<rect x="91.4" y="34.1" transform="matrix(0.5252 -0.851 0.851 0.5252 10.6573 97.8077)" class="st0" width="3.2" height="10.4"/>
		<rect x="82.5" y="38.8" transform="matrix(0.5252 -0.851 0.851 0.5252 7.2871 93.8201)" class="st0" width="10.4" height="3.2"/>
	</g>
</g>
</svg>
