<?xml version="1.0" encoding="utf-8"?>
<!-- Generator: Adobe Illustrator 21.1.0, SVG Export Plug-In . SVG Version: 6.00 Build 0)  -->
<svg version="1.1" id="Layer_1" xmlns="http://www.w3.org/2000/svg" xmlns:xlink="http://www.w3.org/1999/xlink" x="0px" y="0px"
	 viewBox="0 0 128 128" style="enable-background:new 0 0 128 128;" xml:space="preserve">
<style type="text/css">
	.st0{fill:#BBBDBF;}
</style>
<path class="st0" d="M119,9.6c0,0-18-1.1-39.7,20.1c0,0-42.9,49.8-55.2,18.2c0,0-7-13.6,7.5-17.8c0,0-39.3,20.6-12.8,46.3
	c0,0,29.4,27.3,63.3-28.5C82.1,47.9,99.1,15.6,119,9.6z"/>
<path class="st0" d="M111.7,27.3c0,0-29.7,20-30.4,50.8c0,0,0.3,20.3,22.2,11.2c0,0-19.1,21.6-31.2,3.2
	C72.2,92.5,55.8,66.7,111.7,27.3z"/>
<path class="st0" d="M9.4,88.1c-1-2.6,22.3,26.5,45,3.3C54.4,91.4,29.4,137.3,9.4,88.1z"/>
<path class="st0" d="M64.3,92.7c0,0-9.8,21.9,14.3,24.7C78.7,117.4,61.4,108.1,64.3,92.7z"/>
</svg>
